<svg xmlns="http://www.w3.org/2000/svg" viewBox="0 0 720 420"><rect width="720" height="420" fill="#dff2f0"/><circle cx="555" cy="90" r="41" fill="#ffd593"/><path d="M0 270 140 113 320 280 440 141 720 300v120H0" fill="#a7cec3"/><path d="M0 300Q160 238 359 287T720 277V420H0" fill="#73ad97"/><path d="M263 420q110-60 117-141h47q13 84 113 141" fill="#e6d8b6"/><path d="M202 340V174q0-75 156-75t156 75v166" fill="none" stroke="#478e76" stroke-width="21"/><path d="M215 340V178q0-62 143-62t143 62v162" fill="none" stroke="#f3e4c9" stroke-width="12"/><path d="M135 352V236m-54 0q54-144 107 0" stroke="#327b62" stroke-width="21" stroke-linecap="round" fill="none"/><path d="M602 360V244m-47 0q47-122 94 0" stroke="#39866b" stroke-width="23" stroke-linecap="round" fill="none"/><ellipse cx="125" cy="365" rx="71" ry="20" fill="#5b9c82"/><ellipse cx="610" cy="369" rx="63" ry="18" fill="#5b9c82"/><rect x="261" y="308" width="81" height="14" rx="4" fill="#bd9162"/><path d="M273 321v24m56-24v24" stroke="#816747" stroke-width="8"/><g fill="#f4b5a0"><circle cx="232" cy="180" r="11"/><circle cx="247" cy="131" r="11"/><circle cx="319" cy="103" r="11"/><circle cx="423" cy="110" r="11"/><circle cx="488" cy="153" r="11"/><circle cx="504" cy="219" r="11"/></g><path d="M73 111q21-25 42 0m518 46q15-18 30 0" stroke="#5c9b99" stroke-width="4" fill="none"/></svg>
